<mxfile host="app.diagrams.net" modified="2023-12-21T19:30:20.390Z" agent="Mozilla/5.0 (Windows NT 10.0; Win64; x64) AppleWebKit/537.36 (KHTML, like Gecko) Chrome/120.0.0.0 Safari/537.36" etag="X71RfaCbeqmcXNOp6fFH" version="22.1.11" type="device">
  <diagram name="Сторінка-1" id="YkCIXC7knHmluyiYkISt">
    <mxGraphModel dx="1434" dy="780" grid="1" gridSize="10" guides="1" tooltips="1" connect="1" arrows="1" fold="1" page="1" pageScale="1" pageWidth="827" pageHeight="1169" math="0" shadow="0">
      <root>
        <mxCell id="0" />
        <mxCell id="1" parent="0" />
        <mxCell id="5MWL0-nEI8ZgV904CVtz-1" value="user" style="swimlane;fontStyle=0;childLayout=stackLayout;horizontal=1;startSize=30;horizontalStack=0;resizeParent=1;resizeParentMax=0;resizeLast=0;collapsible=1;marginBottom=0;whiteSpace=wrap;html=1;" parent="1" vertex="1">
          <mxGeometry x="340" y="300" width="140" height="150" as="geometry" />
        </mxCell>
        <mxCell id="5MWL0-nEI8ZgV904CVtz-2" value="id" style="text;strokeColor=none;fillColor=none;align=left;verticalAlign=middle;spacingLeft=4;spacingRight=4;overflow=hidden;points=[[0,0.5],[1,0.5]];portConstraint=eastwest;rotatable=0;whiteSpace=wrap;html=1;" parent="5MWL0-nEI8ZgV904CVtz-1" vertex="1">
          <mxGeometry y="30" width="140" height="30" as="geometry" />
        </mxCell>
        <mxCell id="5MWL0-nEI8ZgV904CVtz-3" value="email" style="text;strokeColor=none;fillColor=none;align=left;verticalAlign=middle;spacingLeft=4;spacingRight=4;overflow=hidden;points=[[0,0.5],[1,0.5]];portConstraint=eastwest;rotatable=0;whiteSpace=wrap;html=1;" parent="5MWL0-nEI8ZgV904CVtz-1" vertex="1">
          <mxGeometry y="60" width="140" height="30" as="geometry" />
        </mxCell>
        <mxCell id="5MWL0-nEI8ZgV904CVtz-4" value="password" style="text;strokeColor=none;fillColor=none;align=left;verticalAlign=middle;spacingLeft=4;spacingRight=4;overflow=hidden;points=[[0,0.5],[1,0.5]];portConstraint=eastwest;rotatable=0;whiteSpace=wrap;html=1;" parent="5MWL0-nEI8ZgV904CVtz-1" vertex="1">
          <mxGeometry y="90" width="140" height="30" as="geometry" />
        </mxCell>
        <mxCell id="5MWL0-nEI8ZgV904CVtz-5" value="role STRING" style="text;strokeColor=none;fillColor=none;align=left;verticalAlign=middle;spacingLeft=4;spacingRight=4;overflow=hidden;points=[[0,0.5],[1,0.5]];portConstraint=eastwest;rotatable=0;whiteSpace=wrap;html=1;" parent="5MWL0-nEI8ZgV904CVtz-1" vertex="1">
          <mxGeometry y="120" width="140" height="30" as="geometry" />
        </mxCell>
        <mxCell id="5MWL0-nEI8ZgV904CVtz-6" value="busket" style="swimlane;fontStyle=0;childLayout=stackLayout;horizontal=1;startSize=30;horizontalStack=0;resizeParent=1;resizeParentMax=0;resizeLast=0;collapsible=1;marginBottom=0;whiteSpace=wrap;html=1;" parent="1" vertex="1">
          <mxGeometry x="550" y="360" width="140" height="90" as="geometry" />
        </mxCell>
        <mxCell id="5MWL0-nEI8ZgV904CVtz-7" value="id" style="text;strokeColor=none;fillColor=none;align=left;verticalAlign=middle;spacingLeft=4;spacingRight=4;overflow=hidden;points=[[0,0.5],[1,0.5]];portConstraint=eastwest;rotatable=0;whiteSpace=wrap;html=1;" parent="5MWL0-nEI8ZgV904CVtz-6" vertex="1">
          <mxGeometry y="30" width="140" height="30" as="geometry" />
        </mxCell>
        <mxCell id="5MWL0-nEI8ZgV904CVtz-8" value="user_id" style="text;strokeColor=none;fillColor=none;align=left;verticalAlign=middle;spacingLeft=4;spacingRight=4;overflow=hidden;points=[[0,0.5],[1,0.5]];portConstraint=eastwest;rotatable=0;whiteSpace=wrap;html=1;" parent="5MWL0-nEI8ZgV904CVtz-6" vertex="1">
          <mxGeometry y="60" width="140" height="30" as="geometry" />
        </mxCell>
        <mxCell id="5MWL0-nEI8ZgV904CVtz-11" value="" style="edgeStyle=entityRelationEdgeStyle;fontSize=12;html=1;endArrow=ERmandOne;startArrow=ERmandOne;rounded=0;" parent="1" source="5MWL0-nEI8ZgV904CVtz-2" target="5MWL0-nEI8ZgV904CVtz-8" edge="1">
          <mxGeometry width="100" height="100" relative="1" as="geometry">
            <mxPoint x="540" y="630" as="sourcePoint" />
            <mxPoint x="640" y="530" as="targetPoint" />
          </mxGeometry>
        </mxCell>
        <mxCell id="5MWL0-nEI8ZgV904CVtz-12" value="product" style="swimlane;fontStyle=0;childLayout=stackLayout;horizontal=1;startSize=30;horizontalStack=0;resizeParent=1;resizeParentMax=0;resizeLast=0;collapsible=1;marginBottom=0;whiteSpace=wrap;html=1;" parent="1" vertex="1">
          <mxGeometry x="970" y="275" width="140" height="180" as="geometry" />
        </mxCell>
        <mxCell id="5MWL0-nEI8ZgV904CVtz-13" value="id" style="text;strokeColor=none;fillColor=none;align=left;verticalAlign=middle;spacingLeft=4;spacingRight=4;overflow=hidden;points=[[0,0.5],[1,0.5]];portConstraint=eastwest;rotatable=0;whiteSpace=wrap;html=1;" parent="5MWL0-nEI8ZgV904CVtz-12" vertex="1">
          <mxGeometry y="30" width="140" height="30" as="geometry" />
        </mxCell>
        <mxCell id="5MWL0-nEI8ZgV904CVtz-14" value="name" style="text;strokeColor=none;fillColor=none;align=left;verticalAlign=middle;spacingLeft=4;spacingRight=4;overflow=hidden;points=[[0,0.5],[1,0.5]];portConstraint=eastwest;rotatable=0;whiteSpace=wrap;html=1;" parent="5MWL0-nEI8ZgV904CVtz-12" vertex="1">
          <mxGeometry y="60" width="140" height="30" as="geometry" />
        </mxCell>
        <mxCell id="5MWL0-nEI8ZgV904CVtz-15" value="price" style="text;strokeColor=none;fillColor=none;align=left;verticalAlign=middle;spacingLeft=4;spacingRight=4;overflow=hidden;points=[[0,0.5],[1,0.5]];portConstraint=eastwest;rotatable=0;whiteSpace=wrap;html=1;" parent="5MWL0-nEI8ZgV904CVtz-12" vertex="1">
          <mxGeometry y="90" width="140" height="30" as="geometry" />
        </mxCell>
        <mxCell id="5MWL0-nEI8ZgV904CVtz-16" value="rating" style="text;strokeColor=none;fillColor=none;align=left;verticalAlign=middle;spacingLeft=4;spacingRight=4;overflow=hidden;points=[[0,0.5],[1,0.5]];portConstraint=eastwest;rotatable=0;whiteSpace=wrap;html=1;" parent="5MWL0-nEI8ZgV904CVtz-12" vertex="1">
          <mxGeometry y="120" width="140" height="30" as="geometry" />
        </mxCell>
        <mxCell id="5MWL0-nEI8ZgV904CVtz-18" value="categories_id" style="text;strokeColor=none;fillColor=none;align=left;verticalAlign=middle;spacingLeft=4;spacingRight=4;overflow=hidden;points=[[0,0.5],[1,0.5]];portConstraint=eastwest;rotatable=0;whiteSpace=wrap;html=1;" parent="5MWL0-nEI8ZgV904CVtz-12" vertex="1">
          <mxGeometry y="150" width="140" height="30" as="geometry" />
        </mxCell>
        <mxCell id="5MWL0-nEI8ZgV904CVtz-20" value="category" style="swimlane;fontStyle=0;childLayout=stackLayout;horizontal=1;startSize=30;horizontalStack=0;resizeParent=1;resizeParentMax=0;resizeLast=0;collapsible=1;marginBottom=0;whiteSpace=wrap;html=1;" parent="1" vertex="1">
          <mxGeometry x="1090" y="530" width="140" height="120" as="geometry" />
        </mxCell>
        <mxCell id="5MWL0-nEI8ZgV904CVtz-21" value="id" style="text;strokeColor=none;fillColor=none;align=left;verticalAlign=middle;spacingLeft=4;spacingRight=4;overflow=hidden;points=[[0,0.5],[1,0.5]];portConstraint=eastwest;rotatable=0;whiteSpace=wrap;html=1;" parent="5MWL0-nEI8ZgV904CVtz-20" vertex="1">
          <mxGeometry y="30" width="140" height="30" as="geometry" />
        </mxCell>
        <mxCell id="5MWL0-nEI8ZgV904CVtz-22" value="name" style="text;strokeColor=none;fillColor=none;align=left;verticalAlign=middle;spacingLeft=4;spacingRight=4;overflow=hidden;points=[[0,0.5],[1,0.5]];portConstraint=eastwest;rotatable=0;whiteSpace=wrap;html=1;" parent="5MWL0-nEI8ZgV904CVtz-20" vertex="1">
          <mxGeometry y="60" width="140" height="30" as="geometry" />
        </mxCell>
        <mxCell id="mlr-rR-SufKsn7wQ95hr-1" value="sex" style="text;strokeColor=none;fillColor=none;align=left;verticalAlign=middle;spacingLeft=4;spacingRight=4;overflow=hidden;points=[[0,0.5],[1,0.5]];portConstraint=eastwest;rotatable=0;whiteSpace=wrap;html=1;" vertex="1" parent="5MWL0-nEI8ZgV904CVtz-20">
          <mxGeometry y="90" width="140" height="30" as="geometry" />
        </mxCell>
        <mxCell id="5MWL0-nEI8ZgV904CVtz-26" value="" style="edgeStyle=entityRelationEdgeStyle;fontSize=12;html=1;endArrow=ERoneToMany;rounded=0;" parent="1" source="5MWL0-nEI8ZgV904CVtz-21" target="5MWL0-nEI8ZgV904CVtz-18" edge="1">
          <mxGeometry width="100" height="100" relative="1" as="geometry">
            <mxPoint x="750" y="630" as="sourcePoint" />
            <mxPoint x="850" y="530" as="targetPoint" />
            <Array as="points">
              <mxPoint x="1160" y="785" />
              <mxPoint x="1190" y="540" />
              <mxPoint x="1090" y="540" />
              <mxPoint x="1120" y="540" />
              <mxPoint x="940" y="530" />
              <mxPoint x="1160" y="640" />
              <mxPoint x="1120" y="470" />
              <mxPoint x="1160" y="490" />
              <mxPoint x="1170" y="640" />
            </Array>
          </mxGeometry>
        </mxCell>
        <mxCell id="5MWL0-nEI8ZgV904CVtz-28" value="product_info" style="swimlane;fontStyle=0;childLayout=stackLayout;horizontal=1;startSize=30;horizontalStack=0;resizeParent=1;resizeParentMax=0;resizeLast=0;collapsible=1;marginBottom=0;whiteSpace=wrap;html=1;" parent="1" vertex="1">
          <mxGeometry x="1180" y="275" width="140" height="150" as="geometry" />
        </mxCell>
        <mxCell id="5MWL0-nEI8ZgV904CVtz-29" value="id" style="text;strokeColor=none;fillColor=none;align=left;verticalAlign=middle;spacingLeft=4;spacingRight=4;overflow=hidden;points=[[0,0.5],[1,0.5]];portConstraint=eastwest;rotatable=0;whiteSpace=wrap;html=1;" parent="5MWL0-nEI8ZgV904CVtz-28" vertex="1">
          <mxGeometry y="30" width="140" height="30" as="geometry" />
        </mxCell>
        <mxCell id="5MWL0-nEI8ZgV904CVtz-30" value="product_id" style="text;strokeColor=none;fillColor=none;align=left;verticalAlign=middle;spacingLeft=4;spacingRight=4;overflow=hidden;points=[[0,0.5],[1,0.5]];portConstraint=eastwest;rotatable=0;whiteSpace=wrap;html=1;" parent="5MWL0-nEI8ZgV904CVtz-28" vertex="1">
          <mxGeometry y="60" width="140" height="30" as="geometry" />
        </mxCell>
        <mxCell id="5MWL0-nEI8ZgV904CVtz-31" value="title" style="text;strokeColor=none;fillColor=none;align=left;verticalAlign=middle;spacingLeft=4;spacingRight=4;overflow=hidden;points=[[0,0.5],[1,0.5]];portConstraint=eastwest;rotatable=0;whiteSpace=wrap;html=1;" parent="5MWL0-nEI8ZgV904CVtz-28" vertex="1">
          <mxGeometry y="90" width="140" height="30" as="geometry" />
        </mxCell>
        <mxCell id="5MWL0-nEI8ZgV904CVtz-32" value="description" style="text;strokeColor=none;fillColor=none;align=left;verticalAlign=middle;spacingLeft=4;spacingRight=4;overflow=hidden;points=[[0,0.5],[1,0.5]];portConstraint=eastwest;rotatable=0;whiteSpace=wrap;html=1;" parent="5MWL0-nEI8ZgV904CVtz-28" vertex="1">
          <mxGeometry y="120" width="140" height="30" as="geometry" />
        </mxCell>
        <mxCell id="5MWL0-nEI8ZgV904CVtz-33" value="" style="edgeStyle=entityRelationEdgeStyle;fontSize=12;html=1;endArrow=ERoneToMany;rounded=0;" parent="1" source="5MWL0-nEI8ZgV904CVtz-13" target="5MWL0-nEI8ZgV904CVtz-30" edge="1">
          <mxGeometry width="100" height="100" relative="1" as="geometry">
            <mxPoint x="1280" y="710" as="sourcePoint" />
            <mxPoint x="1360" y="520" as="targetPoint" />
            <Array as="points">
              <mxPoint x="1560" y="810" />
              <mxPoint x="1560" y="665" />
              <mxPoint x="1520" y="495" />
              <mxPoint x="1560" y="515" />
              <mxPoint x="1570" y="665" />
            </Array>
          </mxGeometry>
        </mxCell>
        <mxCell id="5MWL0-nEI8ZgV904CVtz-34" value="busket_product" style="swimlane;fontStyle=0;childLayout=stackLayout;horizontal=1;startSize=30;horizontalStack=0;resizeParent=1;resizeParentMax=0;resizeLast=0;collapsible=1;marginBottom=0;whiteSpace=wrap;html=1;" parent="1" vertex="1">
          <mxGeometry x="760" y="245" width="140" height="180" as="geometry" />
        </mxCell>
        <mxCell id="5MWL0-nEI8ZgV904CVtz-35" value="id" style="text;strokeColor=none;fillColor=none;align=left;verticalAlign=middle;spacingLeft=4;spacingRight=4;overflow=hidden;points=[[0,0.5],[1,0.5]];portConstraint=eastwest;rotatable=0;whiteSpace=wrap;html=1;" parent="5MWL0-nEI8ZgV904CVtz-34" vertex="1">
          <mxGeometry y="30" width="140" height="30" as="geometry" />
        </mxCell>
        <mxCell id="5MWL0-nEI8ZgV904CVtz-36" value="busket_id" style="text;strokeColor=none;fillColor=none;align=left;verticalAlign=middle;spacingLeft=4;spacingRight=4;overflow=hidden;points=[[0,0.5],[1,0.5]];portConstraint=eastwest;rotatable=0;whiteSpace=wrap;html=1;" parent="5MWL0-nEI8ZgV904CVtz-34" vertex="1">
          <mxGeometry y="60" width="140" height="30" as="geometry" />
        </mxCell>
        <mxCell id="5MWL0-nEI8ZgV904CVtz-38" value="product_id" style="text;strokeColor=none;fillColor=none;align=left;verticalAlign=middle;spacingLeft=4;spacingRight=4;overflow=hidden;points=[[0,0.5],[1,0.5]];portConstraint=eastwest;rotatable=0;whiteSpace=wrap;html=1;" parent="5MWL0-nEI8ZgV904CVtz-34" vertex="1">
          <mxGeometry y="90" width="140" height="30" as="geometry" />
        </mxCell>
        <mxCell id="gnACn4G0oC28c5RjPpDY-5" value="quantity" style="text;strokeColor=none;fillColor=none;align=left;verticalAlign=middle;spacingLeft=4;spacingRight=4;overflow=hidden;points=[[0,0.5],[1,0.5]];portConstraint=eastwest;rotatable=0;whiteSpace=wrap;html=1;" parent="5MWL0-nEI8ZgV904CVtz-34" vertex="1">
          <mxGeometry y="120" width="140" height="30" as="geometry" />
        </mxCell>
        <mxCell id="mlr-rR-SufKsn7wQ95hr-2" value="size" style="text;strokeColor=none;fillColor=none;align=left;verticalAlign=middle;spacingLeft=4;spacingRight=4;overflow=hidden;points=[[0,0.5],[1,0.5]];portConstraint=eastwest;rotatable=0;whiteSpace=wrap;html=1;" vertex="1" parent="5MWL0-nEI8ZgV904CVtz-34">
          <mxGeometry y="150" width="140" height="30" as="geometry" />
        </mxCell>
        <mxCell id="5MWL0-nEI8ZgV904CVtz-42" value="" style="edgeStyle=entityRelationEdgeStyle;fontSize=12;html=1;endArrow=ERmandOne;startArrow=ERmandOne;rounded=0;" parent="1" source="5MWL0-nEI8ZgV904CVtz-38" target="5MWL0-nEI8ZgV904CVtz-13" edge="1">
          <mxGeometry width="100" height="100" relative="1" as="geometry">
            <mxPoint x="900" y="400" as="sourcePoint" />
            <mxPoint x="970" y="320" as="targetPoint" />
          </mxGeometry>
        </mxCell>
        <mxCell id="5MWL0-nEI8ZgV904CVtz-43" value="" style="edgeStyle=entityRelationEdgeStyle;fontSize=12;html=1;endArrow=ERoneToMany;rounded=0;" parent="1" source="5MWL0-nEI8ZgV904CVtz-7" target="5MWL0-nEI8ZgV904CVtz-36" edge="1">
          <mxGeometry width="100" height="100" relative="1" as="geometry">
            <mxPoint x="680" y="670" as="sourcePoint" />
            <mxPoint x="760" y="480" as="targetPoint" />
            <Array as="points">
              <mxPoint x="960" y="770" />
              <mxPoint x="960" y="625" />
              <mxPoint x="920" y="455" />
              <mxPoint x="960" y="475" />
              <mxPoint x="970" y="625" />
            </Array>
          </mxGeometry>
        </mxCell>
        <mxCell id="5MWL0-nEI8ZgV904CVtz-44" value="rating" style="swimlane;fontStyle=0;childLayout=stackLayout;horizontal=1;startSize=30;horizontalStack=0;resizeParent=1;resizeParentMax=0;resizeLast=0;collapsible=1;marginBottom=0;whiteSpace=wrap;html=1;" parent="1" vertex="1">
          <mxGeometry x="620" y="500" width="140" height="180" as="geometry" />
        </mxCell>
        <mxCell id="5MWL0-nEI8ZgV904CVtz-45" value="id" style="text;strokeColor=none;fillColor=none;align=left;verticalAlign=middle;spacingLeft=4;spacingRight=4;overflow=hidden;points=[[0,0.5],[1,0.5]];portConstraint=eastwest;rotatable=0;whiteSpace=wrap;html=1;" parent="5MWL0-nEI8ZgV904CVtz-44" vertex="1">
          <mxGeometry y="30" width="140" height="30" as="geometry" />
        </mxCell>
        <mxCell id="5MWL0-nEI8ZgV904CVtz-46" value="user_id" style="text;strokeColor=none;fillColor=none;align=left;verticalAlign=middle;spacingLeft=4;spacingRight=4;overflow=hidden;points=[[0,0.5],[1,0.5]];portConstraint=eastwest;rotatable=0;whiteSpace=wrap;html=1;" parent="5MWL0-nEI8ZgV904CVtz-44" vertex="1">
          <mxGeometry y="60" width="140" height="30" as="geometry" />
        </mxCell>
        <mxCell id="5MWL0-nEI8ZgV904CVtz-47" value="product_id" style="text;strokeColor=none;fillColor=none;align=left;verticalAlign=middle;spacingLeft=4;spacingRight=4;overflow=hidden;points=[[0,0.5],[1,0.5]];portConstraint=eastwest;rotatable=0;whiteSpace=wrap;html=1;" parent="5MWL0-nEI8ZgV904CVtz-44" vertex="1">
          <mxGeometry y="90" width="140" height="30" as="geometry" />
        </mxCell>
        <mxCell id="5MWL0-nEI8ZgV904CVtz-48" value="rate" style="text;strokeColor=none;fillColor=none;align=left;verticalAlign=middle;spacingLeft=4;spacingRight=4;overflow=hidden;points=[[0,0.5],[1,0.5]];portConstraint=eastwest;rotatable=0;whiteSpace=wrap;html=1;" parent="5MWL0-nEI8ZgV904CVtz-44" vertex="1">
          <mxGeometry y="120" width="140" height="30" as="geometry" />
        </mxCell>
        <mxCell id="mlr-rR-SufKsn7wQ95hr-16" value="comment" style="text;strokeColor=none;fillColor=none;align=left;verticalAlign=middle;spacingLeft=4;spacingRight=4;overflow=hidden;points=[[0,0.5],[1,0.5]];portConstraint=eastwest;rotatable=0;whiteSpace=wrap;html=1;" vertex="1" parent="5MWL0-nEI8ZgV904CVtz-44">
          <mxGeometry y="150" width="140" height="30" as="geometry" />
        </mxCell>
        <mxCell id="5MWL0-nEI8ZgV904CVtz-49" value="" style="edgeStyle=entityRelationEdgeStyle;fontSize=12;html=1;endArrow=ERoneToMany;rounded=0;" parent="1" target="5MWL0-nEI8ZgV904CVtz-46" edge="1">
          <mxGeometry width="100" height="100" relative="1" as="geometry">
            <mxPoint x="390" y="450" as="sourcePoint" />
            <mxPoint x="430" y="645" as="targetPoint" />
            <Array as="points">
              <mxPoint x="610" y="800" />
              <mxPoint x="610" y="655" />
              <mxPoint x="570" y="485" />
              <mxPoint x="610" y="505" />
              <mxPoint x="620" y="655" />
            </Array>
          </mxGeometry>
        </mxCell>
        <mxCell id="5MWL0-nEI8ZgV904CVtz-50" value="" style="edgeStyle=entityRelationEdgeStyle;fontSize=12;html=1;endArrow=ERoneToMany;startArrow=ERoneToMany;rounded=0;startFill=0;endFill=0;" parent="1" source="5MWL0-nEI8ZgV904CVtz-47" target="5MWL0-nEI8ZgV904CVtz-16" edge="1">
          <mxGeometry width="100" height="100" relative="1" as="geometry">
            <mxPoint x="640.94" y="605.99" as="sourcePoint" />
            <mxPoint x="970" y="450" as="targetPoint" />
          </mxGeometry>
        </mxCell>
        <mxCell id="gnACn4G0oC28c5RjPpDY-8" value="subcategories" style="swimlane;fontStyle=0;childLayout=stackLayout;horizontal=1;startSize=30;horizontalStack=0;resizeParent=1;resizeParentMax=0;resizeLast=0;collapsible=1;marginBottom=0;whiteSpace=wrap;html=1;" parent="1" vertex="1">
          <mxGeometry x="880" y="560" width="140" height="120" as="geometry" />
        </mxCell>
        <mxCell id="gnACn4G0oC28c5RjPpDY-9" value="id" style="text;strokeColor=none;fillColor=none;align=left;verticalAlign=middle;spacingLeft=4;spacingRight=4;overflow=hidden;points=[[0,0.5],[1,0.5]];portConstraint=eastwest;rotatable=0;whiteSpace=wrap;html=1;" parent="gnACn4G0oC28c5RjPpDY-8" vertex="1">
          <mxGeometry y="30" width="140" height="30" as="geometry" />
        </mxCell>
        <mxCell id="gnACn4G0oC28c5RjPpDY-12" value="categories_id" style="text;strokeColor=none;fillColor=none;align=left;verticalAlign=middle;spacingLeft=4;spacingRight=4;overflow=hidden;points=[[0,0.5],[1,0.5]];portConstraint=eastwest;rotatable=0;whiteSpace=wrap;html=1;" parent="gnACn4G0oC28c5RjPpDY-8" vertex="1">
          <mxGeometry y="60" width="140" height="30" as="geometry" />
        </mxCell>
        <mxCell id="gnACn4G0oC28c5RjPpDY-10" value="name" style="text;strokeColor=none;fillColor=none;align=left;verticalAlign=middle;spacingLeft=4;spacingRight=4;overflow=hidden;points=[[0,0.5],[1,0.5]];portConstraint=eastwest;rotatable=0;whiteSpace=wrap;html=1;" parent="gnACn4G0oC28c5RjPpDY-8" vertex="1">
          <mxGeometry y="90" width="140" height="30" as="geometry" />
        </mxCell>
        <mxCell id="gnACn4G0oC28c5RjPpDY-13" value="" style="edgeStyle=entityRelationEdgeStyle;fontSize=12;html=1;endArrow=ERoneToMany;rounded=0;" parent="1" source="5MWL0-nEI8ZgV904CVtz-21" target="gnACn4G0oC28c5RjPpDY-12" edge="1">
          <mxGeometry width="100" height="100" relative="1" as="geometry">
            <mxPoint x="1210" y="735" as="sourcePoint" />
            <mxPoint x="1150" y="650" as="targetPoint" />
            <Array as="points">
              <mxPoint x="1200" y="965" />
              <mxPoint x="1200" y="820" />
              <mxPoint x="1160" y="650" />
              <mxPoint x="1200" y="670" />
              <mxPoint x="1210" y="820" />
            </Array>
          </mxGeometry>
        </mxCell>
        <mxCell id="gnACn4G0oC28c5RjPpDY-14" value="Я" style="shape=umlActor;verticalLabelPosition=bottom;verticalAlign=top;html=1;outlineConnect=0;" parent="1" vertex="1">
          <mxGeometry x="270" y="570" width="30" height="60" as="geometry" />
        </mxCell>
        <mxCell id="gnACn4G0oC28c5RjPpDY-15" value="images" style="swimlane;fontStyle=0;childLayout=stackLayout;horizontal=1;startSize=30;horizontalStack=0;resizeParent=1;resizeParentMax=0;resizeLast=0;collapsible=1;marginBottom=0;whiteSpace=wrap;html=1;" parent="1" vertex="1">
          <mxGeometry x="1220" y="70" width="140" height="150" as="geometry" />
        </mxCell>
        <mxCell id="gnACn4G0oC28c5RjPpDY-16" value="id" style="text;strokeColor=none;fillColor=none;align=left;verticalAlign=middle;spacingLeft=4;spacingRight=4;overflow=hidden;points=[[0,0.5],[1,0.5]];portConstraint=eastwest;rotatable=0;whiteSpace=wrap;html=1;" parent="gnACn4G0oC28c5RjPpDY-15" vertex="1">
          <mxGeometry y="30" width="140" height="30" as="geometry" />
        </mxCell>
        <mxCell id="gnACn4G0oC28c5RjPpDY-17" value="product_id" style="text;strokeColor=none;fillColor=none;align=left;verticalAlign=middle;spacingLeft=4;spacingRight=4;overflow=hidden;points=[[0,0.5],[1,0.5]];portConstraint=eastwest;rotatable=0;whiteSpace=wrap;html=1;" parent="gnACn4G0oC28c5RjPpDY-15" vertex="1">
          <mxGeometry y="60" width="140" height="30" as="geometry" />
        </mxCell>
        <mxCell id="gnACn4G0oC28c5RjPpDY-22" value="variation" style="text;strokeColor=none;fillColor=none;align=left;verticalAlign=middle;spacingLeft=4;spacingRight=4;overflow=hidden;points=[[0,0.5],[1,0.5]];portConstraint=eastwest;rotatable=0;whiteSpace=wrap;html=1;" parent="gnACn4G0oC28c5RjPpDY-15" vertex="1">
          <mxGeometry y="90" width="140" height="30" as="geometry" />
        </mxCell>
        <mxCell id="gnACn4G0oC28c5RjPpDY-18" value="img" style="text;strokeColor=none;fillColor=none;align=left;verticalAlign=middle;spacingLeft=4;spacingRight=4;overflow=hidden;points=[[0,0.5],[1,0.5]];portConstraint=eastwest;rotatable=0;whiteSpace=wrap;html=1;" parent="gnACn4G0oC28c5RjPpDY-15" vertex="1">
          <mxGeometry y="120" width="140" height="30" as="geometry" />
        </mxCell>
        <mxCell id="gnACn4G0oC28c5RjPpDY-19" value="" style="edgeStyle=entityRelationEdgeStyle;fontSize=12;html=1;endArrow=ERoneToMany;rounded=0;" parent="1" source="5MWL0-nEI8ZgV904CVtz-13" target="gnACn4G0oC28c5RjPpDY-17" edge="1">
          <mxGeometry width="100" height="100" relative="1" as="geometry">
            <mxPoint x="1140" y="415" as="sourcePoint" />
            <mxPoint x="1210" y="360" as="targetPoint" />
            <Array as="points">
              <mxPoint x="1590" y="905" />
              <mxPoint x="1590" y="760" />
              <mxPoint x="1550" y="590" />
              <mxPoint x="1590" y="610" />
              <mxPoint x="1600" y="760" />
            </Array>
          </mxGeometry>
        </mxCell>
        <mxCell id="gnACn4G0oC28c5RjPpDY-23" value="orders" style="swimlane;fontStyle=0;childLayout=stackLayout;horizontal=1;startSize=30;horizontalStack=0;resizeParent=1;resizeParentMax=0;resizeLast=0;collapsible=1;marginBottom=0;whiteSpace=wrap;html=1;" parent="1" vertex="1">
          <mxGeometry x="390" y="860" width="140" height="90" as="geometry" />
        </mxCell>
        <mxCell id="gnACn4G0oC28c5RjPpDY-24" value="id" style="text;strokeColor=none;fillColor=none;align=left;verticalAlign=middle;spacingLeft=4;spacingRight=4;overflow=hidden;points=[[0,0.5],[1,0.5]];portConstraint=eastwest;rotatable=0;whiteSpace=wrap;html=1;" parent="gnACn4G0oC28c5RjPpDY-23" vertex="1">
          <mxGeometry y="30" width="140" height="30" as="geometry" />
        </mxCell>
        <mxCell id="gnACn4G0oC28c5RjPpDY-25" value="user_id" style="text;strokeColor=none;fillColor=none;align=left;verticalAlign=middle;spacingLeft=4;spacingRight=4;overflow=hidden;points=[[0,0.5],[1,0.5]];portConstraint=eastwest;rotatable=0;whiteSpace=wrap;html=1;" parent="gnACn4G0oC28c5RjPpDY-23" vertex="1">
          <mxGeometry y="60" width="140" height="30" as="geometry" />
        </mxCell>
        <mxCell id="gnACn4G0oC28c5RjPpDY-28" value="orders_product" style="swimlane;fontStyle=0;childLayout=stackLayout;horizontal=1;startSize=30;horizontalStack=0;resizeParent=1;resizeParentMax=0;resizeLast=0;collapsible=1;marginBottom=0;whiteSpace=wrap;html=1;" parent="1" vertex="1">
          <mxGeometry x="630" y="810" width="140" height="180" as="geometry" />
        </mxCell>
        <mxCell id="gnACn4G0oC28c5RjPpDY-29" value="id" style="text;strokeColor=none;fillColor=none;align=left;verticalAlign=middle;spacingLeft=4;spacingRight=4;overflow=hidden;points=[[0,0.5],[1,0.5]];portConstraint=eastwest;rotatable=0;whiteSpace=wrap;html=1;" parent="gnACn4G0oC28c5RjPpDY-28" vertex="1">
          <mxGeometry y="30" width="140" height="30" as="geometry" />
        </mxCell>
        <mxCell id="gnACn4G0oC28c5RjPpDY-31" value="order_id" style="text;strokeColor=none;fillColor=none;align=left;verticalAlign=middle;spacingLeft=4;spacingRight=4;overflow=hidden;points=[[0,0.5],[1,0.5]];portConstraint=eastwest;rotatable=0;whiteSpace=wrap;html=1;" parent="gnACn4G0oC28c5RjPpDY-28" vertex="1">
          <mxGeometry y="60" width="140" height="30" as="geometry" />
        </mxCell>
        <mxCell id="gnACn4G0oC28c5RjPpDY-30" value="product_id" style="text;strokeColor=none;fillColor=none;align=left;verticalAlign=middle;spacingLeft=4;spacingRight=4;overflow=hidden;points=[[0,0.5],[1,0.5]];portConstraint=eastwest;rotatable=0;whiteSpace=wrap;html=1;" parent="gnACn4G0oC28c5RjPpDY-28" vertex="1">
          <mxGeometry y="90" width="140" height="30" as="geometry" />
        </mxCell>
        <mxCell id="gnACn4G0oC28c5RjPpDY-33" value="product_size" style="text;strokeColor=none;fillColor=none;align=left;verticalAlign=middle;spacingLeft=4;spacingRight=4;overflow=hidden;points=[[0,0.5],[1,0.5]];portConstraint=eastwest;rotatable=0;whiteSpace=wrap;html=1;" parent="gnACn4G0oC28c5RjPpDY-28" vertex="1">
          <mxGeometry y="120" width="140" height="30" as="geometry" />
        </mxCell>
        <mxCell id="gnACn4G0oC28c5RjPpDY-34" value="product_color" style="text;strokeColor=none;fillColor=none;align=left;verticalAlign=middle;spacingLeft=4;spacingRight=4;overflow=hidden;points=[[0,0.5],[1,0.5]];portConstraint=eastwest;rotatable=0;whiteSpace=wrap;html=1;" parent="gnACn4G0oC28c5RjPpDY-28" vertex="1">
          <mxGeometry y="150" width="140" height="30" as="geometry" />
        </mxCell>
        <mxCell id="gnACn4G0oC28c5RjPpDY-32" value="" style="edgeStyle=entityRelationEdgeStyle;fontSize=12;html=1;endArrow=ERoneToMany;rounded=0;" parent="1" source="gnACn4G0oC28c5RjPpDY-24" target="gnACn4G0oC28c5RjPpDY-31" edge="1">
          <mxGeometry width="100" height="100" relative="1" as="geometry">
            <mxPoint x="789.5" y="985" as="sourcePoint" />
            <mxPoint x="850.5" y="820" as="targetPoint" />
            <Array as="points">
              <mxPoint x="1239.5" y="1475" />
              <mxPoint x="1239.5" y="1330" />
              <mxPoint x="1199.5" y="1160" />
              <mxPoint x="1239.5" y="1180" />
              <mxPoint x="1249.5" y="1330" />
            </Array>
          </mxGeometry>
        </mxCell>
        <mxCell id="gnACn4G0oC28c5RjPpDY-35" value="" style="edgeStyle=entityRelationEdgeStyle;fontSize=12;html=1;endArrow=ERoneToMany;rounded=0;" parent="1" target="gnACn4G0oC28c5RjPpDY-25" edge="1">
          <mxGeometry width="100" height="100" relative="1" as="geometry">
            <mxPoint x="310" y="1020" as="sourcePoint" />
            <mxPoint x="320" y="970" as="targetPoint" />
            <Array as="points">
              <mxPoint x="929.5" y="1560" />
              <mxPoint x="929.5" y="1415" />
              <mxPoint x="889.5" y="1245" />
              <mxPoint x="929.5" y="1265" />
              <mxPoint x="939.5" y="1415" />
            </Array>
          </mxGeometry>
        </mxCell>
        <mxCell id="gnACn4G0oC28c5RjPpDY-36" value="" style="edgeStyle=entityRelationEdgeStyle;fontSize=12;html=1;endArrow=ERoneToMany;rounded=0;" parent="1" target="gnACn4G0oC28c5RjPpDY-30" edge="1">
          <mxGeometry width="100" height="100" relative="1" as="geometry">
            <mxPoint x="870" y="1010" as="sourcePoint" />
            <mxPoint x="930" y="900" as="targetPoint" />
            <Array as="points">
              <mxPoint x="1469.5" y="1525" />
              <mxPoint x="1469.5" y="1380" />
              <mxPoint x="1429.5" y="1210" />
              <mxPoint x="1469.5" y="1230" />
              <mxPoint x="1479.5" y="1380" />
            </Array>
          </mxGeometry>
        </mxCell>
        <mxCell id="mlr-rR-SufKsn7wQ95hr-3" value="Color" style="swimlane;fontStyle=0;childLayout=stackLayout;horizontal=1;startSize=30;horizontalStack=0;resizeParent=1;resizeParentMax=0;resizeLast=0;collapsible=1;marginBottom=0;whiteSpace=wrap;html=1;" vertex="1" parent="1">
          <mxGeometry x="750" y="70" width="140" height="120" as="geometry" />
        </mxCell>
        <mxCell id="mlr-rR-SufKsn7wQ95hr-4" value="id" style="text;strokeColor=none;fillColor=none;align=left;verticalAlign=middle;spacingLeft=4;spacingRight=4;overflow=hidden;points=[[0,0.5],[1,0.5]];portConstraint=eastwest;rotatable=0;whiteSpace=wrap;html=1;" vertex="1" parent="mlr-rR-SufKsn7wQ95hr-3">
          <mxGeometry y="30" width="140" height="30" as="geometry" />
        </mxCell>
        <mxCell id="mlr-rR-SufKsn7wQ95hr-6" value="title" style="text;strokeColor=none;fillColor=none;align=left;verticalAlign=middle;spacingLeft=4;spacingRight=4;overflow=hidden;points=[[0,0.5],[1,0.5]];portConstraint=eastwest;rotatable=0;whiteSpace=wrap;html=1;" vertex="1" parent="mlr-rR-SufKsn7wQ95hr-3">
          <mxGeometry y="60" width="140" height="30" as="geometry" />
        </mxCell>
        <mxCell id="mlr-rR-SufKsn7wQ95hr-7" value="color" style="text;strokeColor=none;fillColor=none;align=left;verticalAlign=middle;spacingLeft=4;spacingRight=4;overflow=hidden;points=[[0,0.5],[1,0.5]];portConstraint=eastwest;rotatable=0;whiteSpace=wrap;html=1;" vertex="1" parent="mlr-rR-SufKsn7wQ95hr-3">
          <mxGeometry y="90" width="140" height="30" as="geometry" />
        </mxCell>
        <mxCell id="mlr-rR-SufKsn7wQ95hr-8" value="product_color" style="swimlane;fontStyle=0;childLayout=stackLayout;horizontal=1;startSize=30;horizontalStack=0;resizeParent=1;resizeParentMax=0;resizeLast=0;collapsible=1;marginBottom=0;whiteSpace=wrap;html=1;" vertex="1" parent="1">
          <mxGeometry x="960" y="70" width="140" height="120" as="geometry" />
        </mxCell>
        <mxCell id="mlr-rR-SufKsn7wQ95hr-9" value="id" style="text;strokeColor=none;fillColor=none;align=left;verticalAlign=middle;spacingLeft=4;spacingRight=4;overflow=hidden;points=[[0,0.5],[1,0.5]];portConstraint=eastwest;rotatable=0;whiteSpace=wrap;html=1;" vertex="1" parent="mlr-rR-SufKsn7wQ95hr-8">
          <mxGeometry y="30" width="140" height="30" as="geometry" />
        </mxCell>
        <mxCell id="mlr-rR-SufKsn7wQ95hr-10" value="product_id" style="text;strokeColor=none;fillColor=none;align=left;verticalAlign=middle;spacingLeft=4;spacingRight=4;overflow=hidden;points=[[0,0.5],[1,0.5]];portConstraint=eastwest;rotatable=0;whiteSpace=wrap;html=1;" vertex="1" parent="mlr-rR-SufKsn7wQ95hr-8">
          <mxGeometry y="60" width="140" height="30" as="geometry" />
        </mxCell>
        <mxCell id="mlr-rR-SufKsn7wQ95hr-11" value="color_id" style="text;strokeColor=none;fillColor=none;align=left;verticalAlign=middle;spacingLeft=4;spacingRight=4;overflow=hidden;points=[[0,0.5],[1,0.5]];portConstraint=eastwest;rotatable=0;whiteSpace=wrap;html=1;" vertex="1" parent="mlr-rR-SufKsn7wQ95hr-8">
          <mxGeometry y="90" width="140" height="30" as="geometry" />
        </mxCell>
        <mxCell id="mlr-rR-SufKsn7wQ95hr-14" value="" style="edgeStyle=entityRelationEdgeStyle;fontSize=12;html=1;endArrow=ERoneToMany;rounded=0;" edge="1" parent="1" source="5MWL0-nEI8ZgV904CVtz-13" target="mlr-rR-SufKsn7wQ95hr-9">
          <mxGeometry width="100" height="100" relative="1" as="geometry">
            <mxPoint x="1080" y="230" as="sourcePoint" />
            <mxPoint x="1141" y="65" as="targetPoint" />
            <Array as="points">
              <mxPoint x="1530" y="720" />
              <mxPoint x="1530" y="575" />
              <mxPoint x="1490" y="405" />
              <mxPoint x="1530" y="425" />
              <mxPoint x="1540" y="575" />
            </Array>
          </mxGeometry>
        </mxCell>
        <mxCell id="mlr-rR-SufKsn7wQ95hr-15" value="" style="edgeStyle=entityRelationEdgeStyle;fontSize=12;html=1;endArrow=ERoneToMany;rounded=0;" edge="1" parent="1" source="mlr-rR-SufKsn7wQ95hr-4" target="mlr-rR-SufKsn7wQ95hr-11">
          <mxGeometry width="100" height="100" relative="1" as="geometry">
            <mxPoint x="660" y="205" as="sourcePoint" />
            <mxPoint x="580" y="-20" as="targetPoint" />
            <Array as="points">
              <mxPoint x="1080" y="605" />
              <mxPoint x="1080" y="460" />
              <mxPoint x="1040" y="290" />
              <mxPoint x="1080" y="310" />
              <mxPoint x="1090" y="460" />
            </Array>
          </mxGeometry>
        </mxCell>
      </root>
    </mxGraphModel>
  </diagram>
</mxfile>
